<svg width="1110" height="624" viewBox="0 0 1110 624" fill="none" xmlns="http://www.w3.org/2000/svg">
<g opacity="0.5">
<path d="M554.616 550.815C686.803 550.815 793.958 443.721 793.958 311.615C793.958 179.508 686.803 72.4148 554.616 72.4148C422.429 72.4148 315.271 179.508 315.271 311.615C315.271 443.721 422.429 550.815 554.616 550.815Z" fill="black" fill-opacity="0.25"/>
<path d="M802.838 311.695C802.838 448.336 691.878 559.107 554.998 559.107C418.118 559.107 307.156 448.336 307.156 311.695C307.156 175.054 418.118 64.2826 554.998 64.2826C691.878 64.2826 802.838 175.054 802.838 311.695Z" stroke="url(#paint0_linear_124_59)" stroke-opacity="0.15"/>
<path d="M555 476.893C646.395 476.893 720.486 402.931 720.486 311.695C720.486 220.458 646.395 146.497 555 146.497C463.605 146.497 389.514 220.458 389.514 311.695C389.514 402.931 463.605 476.893 555 476.893Z" fill="white" fill-opacity="0.01"/>
<path d="M720.1 311.695C720.1 402.718 646.183 476.508 555 476.508C463.817 476.508 389.9 402.718 389.9 311.695C389.9 220.671 463.817 146.882 555 146.882C646.183 146.882 720.1 220.671 720.1 311.695Z" stroke="url(#paint1_linear_124_59)" stroke-opacity="0.2"/>
<path d="M720.1 311.695C720.1 402.718 646.183 476.508 555 476.508C463.817 476.508 389.9 402.718 389.9 311.695C389.9 220.671 463.817 146.882 555 146.882C646.183 146.882 720.1 220.671 720.1 311.695Z" stroke="url(#paint2_linear_124_59)" stroke-opacity="0.5"/>
<path d="M720.1 311.695C720.1 402.718 646.183 476.508 555 476.508C463.817 476.508 389.9 402.718 389.9 311.695C389.9 220.671 463.817 146.882 555 146.882C646.183 146.882 720.1 220.671 720.1 311.695Z" stroke="url(#paint3_linear_124_59)" stroke-opacity="0.6"/>
<g filter="url(#filter0_f_124_59)">
<path d="M720.1 311.695C720.1 402.718 646.183 476.508 555 476.508C463.817 476.508 389.9 402.718 389.9 311.695C389.9 220.671 463.817 146.882 555 146.882C646.183 146.882 720.1 220.671 720.1 311.695Z" stroke="url(#paint4_linear_124_59)" stroke-opacity="0.2"/>
<path d="M720.1 311.695C720.1 402.718 646.183 476.508 555 476.508C463.817 476.508 389.9 402.718 389.9 311.695C389.9 220.671 463.817 146.882 555 146.882C646.183 146.882 720.1 220.671 720.1 311.695Z" stroke="url(#paint5_linear_124_59)" stroke-opacity="0.5"/>
</g>
<g opacity="0.5">
<path opacity="0.9" d="M394.103 248.382L393.504 248.981L405.483 260.95L406.082 260.352L394.103 248.382Z" fill="url(#paint6_linear_124_59)"/>
<path opacity="0.9" d="M394.103 260.951L393.504 260.352L405.483 248.382L406.082 248.981L394.103 260.951Z" fill="url(#paint7_linear_124_59)"/>
<path d="M399.793 255.512C400.261 255.512 400.64 255.133 400.64 254.666C400.64 254.198 400.261 253.819 399.793 253.819C399.325 253.819 398.946 254.198 398.946 254.666C398.946 255.133 399.325 255.512 399.793 255.512Z" fill="white"/>
</g>
</g>
<path opacity="0.9" d="M452.895 175.471V176.302H469.506V175.471H452.895Z" fill="url(#paint8_linear_124_59)"/>
<path opacity="0.9" d="M461.619 184.188H460.788V167.586H461.619V184.188Z" fill="url(#paint9_linear_124_59)"/>
<path d="M461.787 176.474C462.111 176.15 462.111 175.624 461.787 175.3C461.462 174.976 460.937 174.976 460.612 175.3C460.288 175.624 460.288 176.15 460.612 176.474C460.937 176.798 461.462 176.798 461.787 176.474Z" fill="white"/>
<g opacity="0.7">
<path opacity="0.9" d="M608.165 158.256V158.982H622.699V158.256H608.165Z" fill="url(#paint10_linear_124_59)"/>
<path opacity="0.9" d="M615.796 165.882H615.069V151.356H615.796V165.882Z" fill="url(#paint11_linear_124_59)"/>
<path d="M615.946 159.133C616.229 158.849 616.229 158.389 615.946 158.106C615.662 157.822 615.202 157.822 614.918 158.106C614.634 158.389 614.634 158.849 614.918 159.133C615.202 159.416 615.662 159.416 615.946 159.133Z" fill="white"/>
</g>
<g opacity="0.5">
<path opacity="0.9" d="M715.774 301.985L715.333 302.425L724.143 311.229L724.583 310.789L715.774 301.985Z" fill="url(#paint12_linear_124_59)"/>
<path opacity="0.9" d="M715.774 311.23L715.333 310.79L724.143 301.985L724.583 302.426L715.774 311.23Z" fill="url(#paint13_linear_124_59)"/>
<path d="M719.958 307.23C720.302 307.23 720.581 306.951 720.581 306.607C720.581 306.263 720.302 305.985 719.958 305.985C719.614 305.985 719.335 306.263 719.335 306.607C719.335 306.951 719.614 307.23 719.958 307.23Z" fill="white"/>
</g>
<defs>
<filter id="filter0_f_124_59" x="359.4" y="116.382" width="391.2" height="390.626" filterUnits="userSpaceOnUse" color-interpolation-filters="sRGB">
<feFlood flood-opacity="0" result="BackgroundImageFix"/>
<feBlend mode="normal" in="SourceGraphic" in2="BackgroundImageFix" result="shape"/>
<feGaussianBlur stdDeviation="15" result="effect1_foregroundBlur_124_59"/>
</filter>
<linearGradient id="paint0_linear_124_59" x1="554.998" y1="63.8974" x2="554.998" y2="559.492" gradientUnits="userSpaceOnUse">
<stop stop-color="white"/>
<stop offset="1" stop-color="white" stop-opacity="0"/>
</linearGradient>
<linearGradient id="paint1_linear_124_59" x1="555" y1="146.497" x2="555" y2="405.102" gradientUnits="userSpaceOnUse">
<stop stop-color="white"/>
<stop offset="1" stop-color="white" stop-opacity="0"/>
</linearGradient>
<linearGradient id="paint2_linear_124_59" x1="555" y1="146.497" x2="570.385" y2="203.563" gradientUnits="userSpaceOnUse">
<stop stop-color="white"/>
<stop offset="1" stop-color="white" stop-opacity="0"/>
</linearGradient>
<linearGradient id="paint3_linear_124_59" x1="555" y1="146.497" x2="558.343" y2="158.025" gradientUnits="userSpaceOnUse">
<stop stop-color="white"/>
<stop offset="1" stop-color="white" stop-opacity="0"/>
</linearGradient>
<linearGradient id="paint4_linear_124_59" x1="555" y1="146.497" x2="555" y2="405.102" gradientUnits="userSpaceOnUse">
<stop stop-color="white"/>
<stop offset="1" stop-color="white" stop-opacity="0"/>
</linearGradient>
<linearGradient id="paint5_linear_124_59" x1="555" y1="146.497" x2="570.385" y2="203.563" gradientUnits="userSpaceOnUse">
<stop stop-color="white"/>
<stop offset="1" stop-color="white" stop-opacity="0"/>
</linearGradient>
<linearGradient id="paint6_linear_124_59" x1="393.804" y1="248.681" x2="405.774" y2="260.66" gradientUnits="userSpaceOnUse">
<stop stop-color="white" stop-opacity="0"/>
<stop offset="0.5" stop-color="white"/>
<stop offset="1" stop-color="white" stop-opacity="0"/>
</linearGradient>
<linearGradient id="paint7_linear_124_59" x1="393.804" y1="260.651" x2="405.774" y2="248.672" gradientUnits="userSpaceOnUse">
<stop stop-color="white" stop-opacity="0"/>
<stop offset="0.5" stop-color="white"/>
<stop offset="1" stop-color="white" stop-opacity="0"/>
</linearGradient>
<linearGradient id="paint8_linear_124_59" x1="452.895" y1="175.886" x2="469.506" y2="175.886" gradientUnits="userSpaceOnUse">
<stop stop-color="white" stop-opacity="0"/>
<stop offset="0.5" stop-color="white"/>
<stop offset="1" stop-color="white" stop-opacity="0"/>
</linearGradient>
<linearGradient id="paint9_linear_124_59" x1="461.203" y1="184.188" x2="461.203" y2="167.586" gradientUnits="userSpaceOnUse">
<stop stop-color="white" stop-opacity="0"/>
<stop offset="0.5" stop-color="white"/>
<stop offset="1" stop-color="white" stop-opacity="0"/>
</linearGradient>
<linearGradient id="paint10_linear_124_59" x1="608.165" y1="158.619" x2="622.699" y2="158.619" gradientUnits="userSpaceOnUse">
<stop stop-color="white" stop-opacity="0"/>
<stop offset="0.5" stop-color="white"/>
<stop offset="1" stop-color="white" stop-opacity="0"/>
</linearGradient>
<linearGradient id="paint11_linear_124_59" x1="615.433" y1="165.882" x2="615.433" y2="151.356" gradientUnits="userSpaceOnUse">
<stop stop-color="white" stop-opacity="0"/>
<stop offset="0.5" stop-color="white"/>
<stop offset="1" stop-color="white" stop-opacity="0"/>
</linearGradient>
<linearGradient id="paint12_linear_124_59" x1="715.554" y1="302.205" x2="724.358" y2="311.015" gradientUnits="userSpaceOnUse">
<stop stop-color="white" stop-opacity="0"/>
<stop offset="0.5" stop-color="white"/>
<stop offset="1" stop-color="white" stop-opacity="0"/>
</linearGradient>
<linearGradient id="paint13_linear_124_59" x1="715.554" y1="311.01" x2="724.358" y2="302.2" gradientUnits="userSpaceOnUse">
<stop stop-color="white" stop-opacity="0"/>
<stop offset="0.5" stop-color="white"/>
<stop offset="1" stop-color="white" stop-opacity="0"/>
</linearGradient>
</defs>
</svg>