<svg width="1110" height="624" viewBox="0 0 1110 624" fill="none" xmlns="http://www.w3.org/2000/svg">
<g opacity="0.5">
<path d="M802.838 311.695C802.838 448.336 691.878 559.107 554.998 559.107C418.118 559.107 307.156 448.336 307.156 311.695C307.156 175.054 418.118 64.2826 554.998 64.2826C691.878 64.2826 802.838 175.054 802.838 311.695Z" stroke="url(#paint0_linear_126_3)"/>
<path d="M555 476.893C646.395 476.893 720.486 402.931 720.486 311.695C720.486 220.458 646.395 146.497 555 146.497C463.605 146.497 389.514 220.458 389.514 311.695C389.514 402.931 463.605 476.893 555 476.893Z" fill="white" fill-opacity="0.01"/>
<path d="M719.986 311.695C719.986 402.654 646.119 476.393 555 476.393C463.881 476.393 390.014 402.654 390.014 311.695C390.014 220.735 463.881 146.997 555 146.997C646.119 146.997 719.986 220.735 719.986 311.695Z" stroke="url(#paint1_linear_126_3)" stroke-opacity="0.42"/>
<path d="M720.1 311.695C720.1 402.718 646.183 476.508 555 476.508C463.817 476.508 389.9 402.718 389.9 311.695C389.9 220.671 463.817 146.882 555 146.882C646.183 146.882 720.1 220.671 720.1 311.695Z" stroke="url(#paint2_linear_126_3)" stroke-opacity="0.2"/>
<path d="M720.1 311.695C720.1 402.718 646.183 476.508 555 476.508C463.817 476.508 389.9 402.718 389.9 311.695C389.9 220.671 463.817 146.882 555 146.882C646.183 146.882 720.1 220.671 720.1 311.695Z" stroke="url(#paint3_linear_126_3)" stroke-opacity="0.5"/>
<path d="M720.1 311.695C720.1 402.718 646.183 476.508 555 476.508C463.817 476.508 389.9 402.718 389.9 311.695C389.9 220.671 463.817 146.882 555 146.882C646.183 146.882 720.1 220.671 720.1 311.695Z" stroke="url(#paint4_linear_126_3)" stroke-opacity="0.6"/>
<g filter="url(#filter0_f_126_3)">
<path d="M720.1 311.695C720.1 402.718 646.183 476.508 555 476.508C463.817 476.508 389.9 402.718 389.9 311.695C389.9 220.671 463.817 146.882 555 146.882C646.183 146.882 720.1 220.671 720.1 311.695Z" stroke="url(#paint5_linear_126_3)" stroke-opacity="0.2"/>
<path d="M720.1 311.695C720.1 402.718 646.183 476.508 555 476.508C463.817 476.508 389.9 402.718 389.9 311.695C389.9 220.671 463.817 146.882 555 146.882C646.183 146.882 720.1 220.671 720.1 311.695Z" stroke="url(#paint6_linear_126_3)" stroke-opacity="0.5"/>
</g>
<g opacity="0.5">
<path opacity="0.9" d="M394.103 248.382L393.504 248.981L405.483 260.951L406.082 260.352L394.103 248.382Z" fill="url(#paint7_linear_126_3)"/>
<path opacity="0.9" d="M394.103 260.951L393.504 260.352L405.483 248.382L406.082 248.981L394.103 260.951Z" fill="url(#paint8_linear_126_3)"/>
<path d="M399.793 255.512C400.261 255.512 400.64 255.133 400.64 254.666C400.64 254.199 400.261 253.82 399.793 253.82C399.325 253.82 398.946 254.199 398.946 254.666C398.946 255.133 399.325 255.512 399.793 255.512Z" fill="white"/>
</g>
</g>
<path opacity="0.9" d="M452.895 175.471V176.302H469.506V175.471H452.895Z" fill="url(#paint9_linear_126_3)"/>
<path opacity="0.9" d="M461.619 184.188H460.788V167.586H461.619V184.188Z" fill="url(#paint10_linear_126_3)"/>
<path d="M461.787 176.474C462.111 176.15 462.111 175.624 461.787 175.3C461.462 174.976 460.937 174.976 460.612 175.3C460.288 175.624 460.288 176.15 460.612 176.474C460.937 176.798 461.462 176.798 461.787 176.474Z" fill="white"/>
<path opacity="0.9" d="M621.259 459.251L621.139 459.698L630.094 462.098L630.214 461.65L621.259 459.251Z" fill="url(#paint11_linear_126_3)"/>
<path opacity="0.9" d="M624.703 465.21L624.255 465.09L626.653 456.14L627.101 456.26L624.703 465.21Z" fill="url(#paint12_linear_126_3)"/>
<path d="M625.908 461.076C626.129 460.948 626.205 460.664 626.077 460.443C625.949 460.221 625.666 460.145 625.444 460.273C625.222 460.401 625.147 460.684 625.275 460.906C625.403 461.127 625.686 461.203 625.908 461.076Z" fill="white"/>
<g opacity="0.7">
<path opacity="0.9" d="M608.165 158.256V158.982H622.699V158.256H608.165Z" fill="url(#paint13_linear_126_3)"/>
<path opacity="0.9" d="M615.796 165.881H615.069V151.356H615.796V165.881Z" fill="url(#paint14_linear_126_3)"/>
<path d="M615.946 159.133C616.229 158.849 616.229 158.389 615.946 158.106C615.662 157.822 615.202 157.822 614.918 158.106C614.634 158.389 614.634 158.849 614.918 159.133C615.202 159.416 615.662 159.416 615.946 159.133Z" fill="white"/>
</g>
<g opacity="0.7">
<path opacity="0.9" d="M430.763 425.936L431.159 426.042L433.284 418.115L432.887 418.009L430.763 425.936Z" fill="url(#paint15_linear_126_3)"/>
<path opacity="0.9" d="M436.038 422.888L435.931 423.284L428.009 421.162L428.115 420.765L436.038 422.888Z" fill="url(#paint16_linear_126_3)"/>
<path d="M432.379 421.82C432.265 421.624 432.015 421.557 431.818 421.67C431.622 421.783 431.555 422.034 431.668 422.23C431.782 422.427 432.032 422.494 432.228 422.38C432.425 422.267 432.492 422.016 432.379 421.82Z" fill="white"/>
</g>
<g opacity="0.5">
<path opacity="0.9" d="M715.774 301.985L715.333 302.425L724.143 311.229L724.583 310.789L715.774 301.985Z" fill="url(#paint17_linear_126_3)"/>
<path opacity="0.9" d="M715.774 311.23L715.333 310.79L724.143 301.986L724.583 302.426L715.774 311.23Z" fill="url(#paint18_linear_126_3)"/>
<path d="M719.958 307.23C720.302 307.23 720.581 306.951 720.581 306.607C720.581 306.264 720.302 305.985 719.958 305.985C719.614 305.985 719.335 306.264 719.335 306.607C719.335 306.951 719.614 307.23 719.958 307.23Z" fill="white"/>
</g>
<defs>
<filter id="filter0_f_126_3" x="359.4" y="116.382" width="391.2" height="390.626" filterUnits="userSpaceOnUse" color-interpolation-filters="sRGB">
<feFlood flood-opacity="0" result="BackgroundImageFix"/>
<feBlend mode="normal" in="SourceGraphic" in2="BackgroundImageFix" result="shape"/>
<feGaussianBlur stdDeviation="15" result="effect1_foregroundBlur_126_3"/>
</filter>
<linearGradient id="paint0_linear_126_3" x1="554.998" y1="63.8974" x2="554.998" y2="559.492" gradientUnits="userSpaceOnUse">
<stop stop-color="#14B4C6"/>
<stop offset="1" stop-color="#FF9900" stop-opacity="0"/>
</linearGradient>
<linearGradient id="paint1_linear_126_3" x1="555" y1="146.497" x2="555" y2="476.893" gradientUnits="userSpaceOnUse">
<stop stop-color="#FF9900" stop-opacity="0"/>
<stop offset="1" stop-color="#FF9900"/>
</linearGradient>
<linearGradient id="paint2_linear_126_3" x1="555" y1="146.497" x2="555" y2="405.102" gradientUnits="userSpaceOnUse">
<stop stop-color="white"/>
<stop offset="1" stop-color="white" stop-opacity="0"/>
</linearGradient>
<linearGradient id="paint3_linear_126_3" x1="555" y1="146.497" x2="570.385" y2="203.563" gradientUnits="userSpaceOnUse">
<stop stop-color="white"/>
<stop offset="1" stop-color="white" stop-opacity="0"/>
</linearGradient>
<linearGradient id="paint4_linear_126_3" x1="555" y1="146.497" x2="558.343" y2="158.025" gradientUnits="userSpaceOnUse">
<stop stop-color="white"/>
<stop offset="1" stop-color="white" stop-opacity="0"/>
</linearGradient>
<linearGradient id="paint5_linear_126_3" x1="555" y1="146.497" x2="555" y2="405.102" gradientUnits="userSpaceOnUse">
<stop stop-color="white"/>
<stop offset="1" stop-color="white" stop-opacity="0"/>
</linearGradient>
<linearGradient id="paint6_linear_126_3" x1="555" y1="146.497" x2="570.385" y2="203.563" gradientUnits="userSpaceOnUse">
<stop stop-color="white"/>
<stop offset="1" stop-color="white" stop-opacity="0"/>
</linearGradient>
<linearGradient id="paint7_linear_126_3" x1="393.804" y1="248.681" x2="405.774" y2="260.66" gradientUnits="userSpaceOnUse">
<stop stop-color="#00B2FF"/>
<stop offset="0.463542" stop-color="white"/>
<stop offset="1" stop-color="#FF9900" stop-opacity="0"/>
</linearGradient>
<linearGradient id="paint8_linear_126_3" x1="393.804" y1="260.651" x2="405.774" y2="248.672" gradientUnits="userSpaceOnUse">
<stop stop-color="#14B4C6"/>
<stop offset="0.463542" stop-color="white"/>
<stop offset="1" stop-color="#FF9900" stop-opacity="0"/>
</linearGradient>
<linearGradient id="paint9_linear_126_3" x1="452.895" y1="175.886" x2="469.506" y2="175.886" gradientUnits="userSpaceOnUse">
<stop stop-color="#14B4C6"/>
<stop offset="0.5" stop-color="white"/>
<stop offset="1" stop-color="#FF8A00" stop-opacity="0.7"/>
</linearGradient>
<linearGradient id="paint10_linear_126_3" x1="461.203" y1="184.188" x2="461.203" y2="167.586" gradientUnits="userSpaceOnUse">
<stop stop-color="#00B2FF"/>
<stop offset="0.5" stop-color="white"/>
<stop offset="1" stop-color="#FF9900"/>
</linearGradient>
<linearGradient id="paint11_linear_126_3" x1="621.199" y1="459.474" x2="630.154" y2="461.874" gradientUnits="userSpaceOnUse">
<stop stop-color="#14B4C6"/>
<stop offset="0.5" stop-color="white"/>
<stop offset="1" stop-color="#FF8A00" stop-opacity="0.7"/>
</linearGradient>
<linearGradient id="paint12_linear_126_3" x1="624.479" y1="465.15" x2="626.877" y2="456.2" gradientUnits="userSpaceOnUse">
<stop stop-color="#00B2FF"/>
<stop offset="0.5" stop-color="white"/>
<stop offset="1" stop-color="#FF9900"/>
</linearGradient>
<linearGradient id="paint13_linear_126_3" x1="608.165" y1="158.619" x2="622.699" y2="158.619" gradientUnits="userSpaceOnUse">
<stop stop-color="#00B2FF"/>
<stop offset="0.5" stop-color="white"/>
<stop offset="1" stop-color="#FF8A00" stop-opacity="0.7"/>
</linearGradient>
<linearGradient id="paint14_linear_126_3" x1="615.433" y1="165.881" x2="615.433" y2="151.356" gradientUnits="userSpaceOnUse">
<stop stop-color="#00B2FF"/>
<stop offset="0.5" stop-color="white"/>
<stop offset="1" stop-color="#FF8A00" stop-opacity="0.7"/>
</linearGradient>
<linearGradient id="paint15_linear_126_3" x1="430.962" y1="425.989" x2="433.086" y2="418.062" gradientUnits="userSpaceOnUse">
<stop stop-color="#00B2FF"/>
<stop offset="0.5" stop-color="white"/>
<stop offset="1" stop-color="#FF8A00" stop-opacity="0.7"/>
</linearGradient>
<linearGradient id="paint16_linear_126_3" x1="435.984" y1="423.086" x2="428.062" y2="420.963" gradientUnits="userSpaceOnUse">
<stop stop-color="#00B2FF"/>
<stop offset="0.5" stop-color="white"/>
<stop offset="1" stop-color="#FF8A00" stop-opacity="0.7"/>
</linearGradient>
<linearGradient id="paint17_linear_126_3" x1="715.554" y1="302.205" x2="724.358" y2="311.015" gradientUnits="userSpaceOnUse">
<stop stop-color="white" stop-opacity="0"/>
<stop offset="0.5" stop-color="white"/>
<stop offset="1" stop-color="white" stop-opacity="0"/>
</linearGradient>
<linearGradient id="paint18_linear_126_3" x1="715.554" y1="311.01" x2="724.358" y2="302.2" gradientUnits="userSpaceOnUse">
<stop stop-color="white" stop-opacity="0"/>
<stop offset="0.5" stop-color="white"/>
<stop offset="1" stop-color="white" stop-opacity="0"/>
</linearGradient>
</defs>
</svg>
